<?xml version="1.0" encoding="UTF-8"?>
<svg id="Layer_2" data-name="Layer 2" xmlns="http://www.w3.org/2000/svg" viewBox="0 0 592.48 115.21">
  <defs>
    <style>
      .cls-1 {
        fill: #1c1c1c;
      }
    </style>
  </defs>
  <g id="Layer_1-2" data-name="Layer 1">
    <g>
      <path class="cls-1" d="m121.86,64.16v49.48h-15.73v-47.38c0-15.39-10.14-20.46-18.71-20.46s-18.53,5.07-18.53,20.46v47.38h-15.73v-47.38c0-15.39-10.14-20.46-18.88-20.46s-18.53,5.07-18.53,20.46v47.38H0V33.22h15.73v9.62c5.77-7.52,14.51-10.84,23.08-10.84,10.14,0,20.63,3.85,26.05,14.16,6.12-10.49,17.13-14.16,27.1-14.16,14.69,0,29.9,8.04,29.9,32.17Z"/>
      <path class="cls-1" d="m214.69,33.22v80.42h-15.73v-12.41c-5.94,8.57-15.21,13.81-27.62,13.81-22.73,0-38.99-17.66-38.99-41.61s16.26-41.44,38.99-41.44c12.41,0,21.68,5.25,27.62,13.64v-12.41h15.73Zm-15.73,40.21c0-15.56-10.14-26.57-25.52-26.57s-25.7,11.01-25.7,26.57,10.14,26.75,25.7,26.75,25.52-11.36,25.52-26.75Z"/>
      <path class="cls-1" d="m272.73,31.99v14.86c-10.84.18-28.32,4.9-28.32,25.53v41.26h-15.73V33.22h15.73v14.86c6.29-11.01,17.13-15.91,28.32-16.08Z"/>
      <path class="cls-1" d="m284.96,113.64V0h15.91l-.17,113.64h-15.73Z"/>
      <path class="cls-1" d="m310.49,73.43c0-24.3,16.96-41.78,41.26-41.78s40.91,17.48,40.91,41.78-16.78,41.78-40.91,41.78-41.26-17.83-41.26-41.78Zm66.61,0c0-15.39-10.14-26.57-25.35-26.57s-25.53,11.19-25.53,26.57,10.14,26.75,25.53,26.75,25.35-11.54,25.35-26.75Z"/>
      <path class="cls-1" d="m514.86,33.22l-26.75,80.42h-15.56l-18.88-55.6-19.06,55.6h-15.56l-26.4-80.42h16.43l18.71,58.22,20.28-58.22h11.54l19.93,58.22,18.88-58.22h16.43Z"/>
      <path class="cls-1" d="m592.48,73.43v4.55h-63.29c1.57,14.34,11.71,23.6,25.7,23.6,11.54,0,18.88-5.25,22.73-10.84l11.01,7.87c-6.99,10.14-19.06,16.61-33.74,16.61-24.48,0-40.91-17.83-40.91-41.78s15.73-41.61,39.86-41.61,38.64,17.66,38.64,41.61Zm-63.29-5.77h48.6c-1.92-13.46-10.49-23.25-23.95-23.25s-22.73,9.27-24.65,23.25Z"/>
    </g>
  </g>
</svg>